# xmcd
#
# Track frame offsets:
#	150
#	21683
#	44533
#	64558
#	82103
#	99261
#	116674
#	130409
#	145949
#	162734
#	178494
#	192369
#	208569
#	225574
#
# Disc length: 3204
#
# Revision: 3
# Processed by: cddbd v1.5.1PL0 Copyright (c) Steve Scherf et al.
# Submitted via: audiograbber 1.80.04
# Normalized: r2:DSETVAR1
#
DISCID=d40c820e
DTITLE=Various Artist - Hot Hits Country Vol. 68
DYEAR=1997
DGENRE=Country
TTITLE0=Raybon Bros. - Butterfly Kisses
TTITLE1=Bob Carlisle - Buterfly Kisses
TTITLE2=Trisha Yearwood - How Do I Live
TTITLE3=George Strait - Carrying Your Love With Me
TTITLE4=Collin Raye - What Your Heart Wants
TTITLE5=Diamond Rio - How Your Love Makes Me Feel
TTITLE6=Billy Yates - Flowers
TTITLE7=Kenny Chesney - She's Got It All
TTITLE8=The Buffalo Club - Nothin Less Than Love
TTITLE9=Jeff Wood - You Call That A Mountain
TTITLE10=Regina Regina - Asking For The Moon
TTITLE11=Lee Ann Womack - The Fool
TTITLE12=Blackhawk - Hole In My Heart
TTITLE13=Ricochet - He Left A Lot To Be Desired
EXTD=
EXTT0=
EXTT1=
EXTT2=
EXTT3=
EXTT4=
EXTT5=
EXTT6=
EXTT7=
EXTT8=
EXTT9=
EXTT10=
EXTT11=
EXTT12=
EXTT13=
PLAYORDER=
